<?xml version="1.0" standalone="no"?>
<!DOCTYPE svg PUBLIC "-//W3C//DTD SVG 20010904//EN"
 "http://www.w3.org/TR/2001/REC-SVG-20010904/DTD/svg10.dtd">
<svg version="1.0" xmlns="http://www.w3.org/2000/svg"
 width="615.000000pt" height="360.000000pt" viewBox="0 0 615.000000 360.000000"
 preserveAspectRatio="xMidYMid meet">

<g transform="translate(0.000000,360.000000) scale(0.100000,-0.100000)"
fill="#000000" stroke="none">
<path d="M3112 3578 c-17 -17 -15 -63 3 -98 l15 -30 -42 6 c-34 5 -48 2 -68
-14 -21 -17 -23 -23 -13 -45 11 -23 9 -25 -17 -31 -27 -5 -69 -50 -58 -62 8
-7 108 57 103 66 -7 11 51 30 89 30 20 0 52 -14 86 -37 89 -61 170 -50 170 24
0 69 -38 123 -88 123 -11 0 -28 12 -38 28 -9 15 -25 32 -33 39 -21 16 -93 17
-109 1z"/>
<path d="M3425 3222 c-66 -41 -133 -142 -120 -183 9 -29 54 -78 86 -94 37 -20
142 -19 179 0 24 12 30 22 30 48 0 18 -7 43 -16 55 -14 20 -22 22 -55 17 -25
-4 -39 -3 -39 4 0 14 37 37 73 45 23 5 27 12 27 40 0 19 -9 45 -21 60 -17 21
-29 26 -67 26 -28 0 -59 -8 -77 -18z"/>
<path d="M2945 3066 c-21 -32 -16 -105 8 -120 14 -8 20 -8 27 4 16 24 12 67
-7 74 -14 6 -14 9 6 22 17 13 20 19 10 30 -16 20 -26 18 -44 -10z"/>
<path d="M3629 2766 c-2 -3 -85 -7 -184 -9 -112 -4 -199 -11 -231 -20 -70 -20
-165 -72 -203 -111 l-32 -33 30 -36 c18 -24 27 -45 24 -57 -3 -11 0 -27 7 -35
14 -17 15 -16 -47 -64 -23 -17 -60 -59 -81 -92 l-40 -61 14 -56 c22 -94 23
-92 -51 -92 -100 0 -182 -32 -255 -97 -33 -31 -74 -75 -91 -100 l-31 -44 35 6
c45 9 75 -8 93 -50 16 -39 18 -112 5 -148 -12 -32 -105 -131 -147 -157 -30
-19 -34 -26 -34 -66 l0 -45 -147 1 c-82 1 -292 1 -469 0 l-321 0 -6 -107 c-7
-136 -32 -216 -97 -315 -72 -109 -110 -148 -148 -148 -35 0 -243 70 -313 106
-56 28 -79 64 -79 123 0 30 6 44 25 60 l26 20 -45 6 c-55 9 -79 3 -178 -41
-77 -33 -168 -54 -240 -54 -44 0 -83 30 -127 97 -38 56 -38 73 -6 111 14 17
25 41 25 54 0 38 18 48 92 48 66 0 68 1 58 20 -10 19 -21 20 -225 20 -199 0
-215 -1 -224 -19 -17 -31 7 -50 69 -53 l55 -3 3 -657 2 -658 50 0 50 0 0 219
c0 258 -3 251 95 251 l63 0 -9 35 c-6 20 -9 52 -7 73 l3 37 130 2 c167 3 176
5 267 58 93 54 162 76 180 56 11 -11 9 -15 -6 -25 -36 -21 -71 -54 -65 -61 7
-6 79 33 91 49 11 16 419 115 476 116 83 0 109 -39 77 -116 -15 -37 -99 -160
-171 -254 -24 -30 -66 -86 -95 -124 l-51 -68 12 -60 c13 -60 30 -88 54 -88 7
0 25 -9 39 -20 21 -17 25 -27 20 -50 l-5 -30 101 0 101 0 0 75 c0 94 15 131
78 195 l50 50 4 118 c4 120 13 150 52 185 42 36 87 48 207 54 l119 6 -7 -96
-6 -96 31 -18 c50 -28 42 -100 -8 -73 -12 6 -20 21 -20 36 0 13 -23 69 -50
124 -47 93 -52 100 -80 100 -19 0 -30 -5 -30 -14 0 -7 24 -62 54 -122 30 -60
62 -135 72 -167 l18 -58 -57 -53 c-62 -56 -70 -83 -41 -125 15 -20 23 -23 65
-19 27 3 49 2 49 -3 0 -17 -57 -73 -88 -86 -45 -19 -37 -25 22 -17 69 10 107
40 133 104 14 36 35 67 62 89 l41 34 0 -80 c0 -87 -10 -104 -74 -131 -16 -7
-27 -14 -25 -15 2 -1 99 0 214 3 187 4 207 6 178 18 -82 35 -143 144 -127 229
10 53 61 99 132 119 83 24 102 38 102 79 0 43 -23 59 -102 74 -92 17 -143 51
-178 119 -34 65 -36 118 -8 172 44 82 56 85 344 85 l250 0 41 -27 c49 -32 86
-80 101 -128 16 -51 82 -520 82 -580 0 -61 -18 -99 -62 -134 l-33 -26 239 0
238 0 -5 23 c-3 12 -9 43 -12 70 l-7 47 43 0 c38 0 47 -5 86 -47 24 -25 46
-44 48 -41 3 3 -14 27 -38 53 -40 45 -46 48 -92 49 -57 1 -65 7 -65 55 0 63
87 119 212 136 33 5 48 12 51 25 8 29 48 47 118 53 48 4 72 2 85 -8 16 -11 13
-12 -26 -8 -58 6 -127 -12 -140 -37 -14 -26 1 -26 23 0 15 18 27 20 85 18 l67
-3 0 -77 c0 -52 -4 -78 -11 -78 -29 0 -146 -42 -138 -50 5 -5 52 4 108 21 147
44 240 35 261 -26 5 -16 18 -38 28 -48 24 -24 17 -41 -19 -45 -16 -1 -92 -18
-169 -38 -77 -19 -183 -39 -235 -44 -78 -7 -59 -8 104 -4 110 2 663 4 1229 4
l1030 0 -5 93 c-6 114 -34 182 -104 257 -139 148 -366 165 -606 45 -73 -37
-88 -41 -88 -27 0 26 -46 120 -80 162 -70 89 -225 160 -349 160 -122 0 -259
-52 -361 -135 l-55 -45 -3 392 c-1 216 0 398 2 405 3 8 37 13 98 15 l93 3 0
30 0 30 -287 5 -286 5 -24 29 c-12 17 -62 80 -110 140 l-88 111 0 76 c0 96
-15 177 -46 247 -13 30 -23 56 -21 58 2 2 41 -22 87 -53 47 -31 123 -75 170
-97 76 -36 93 -41 162 -41 70 0 79 2 115 31 73 59 75 139 6 206 -56 53 -325
269 -330 264 -2 -2 8 -32 22 -66 18 -43 24 -71 20 -91 -7 -31 -84 -112 -129
-136 -35 -18 -71 -6 -87 31 -9 19 -21 25 -65 31 -44 5 -54 10 -54 26 0 10 -5
19 -10 19 -15 0 -39 61 -31 80 3 8 38 45 76 80 77 71 97 94 88 103 -3 4 -41
-25 -84 -64 -76 -69 -78 -70 -85 -45 -3 14 -3 30 1 36 3 6 -3 26 -15 45 l-22
35 22 27 21 28 -21 9 c-15 7 -20 16 -16 30 2 12 8 61 11 110 6 70 5 90 -6 97
-15 9 -33 12 -40 5z m-116 -392 c30 -50 29 -74 -1 -74 -28 0 -39 18 -44 73 -7
61 8 61 45 1z m-120 -176 c2 -7 2 -28 -1 -47 -5 -33 -4 -34 24 -28 77 17 182
30 198 24 11 -4 16 -15 14 -29 -2 -18 -15 -25 -65 -38 -34 -8 -64 -17 -66 -20
-3 -3 26 -6 65 -7 76 -2 91 -10 106 -52 l10 -28 -131 1 c-100 1 -131 -2 -135
-12 -3 -10 9 -13 49 -12 30 1 93 1 141 1 l87 -1 12 -42 c17 -67 9 -72 -103
-69 l-96 3 -26 -35 c-15 -19 -45 -47 -66 -62 -38 -26 -41 -27 -59 -11 -25 22
-77 121 -101 191 l-19 55 24 36 c20 29 36 70 70 182 3 6 18 12 34 12 16 0 31
-6 34 -12z m-476 -206 c13 -8 33 -55 33 -78 0 -11 -4 -12 -19 -4 -30 16 -76
12 -93 -7 -9 -10 -24 -36 -34 -58 -21 -45 -66 -61 -78 -29 -16 42 44 146 98
170 35 15 75 18 93 6z m61 -263 c19 -20 19 -21 0 -60 -23 -48 -42 -57 -68 -34
-23 20 -25 46 -9 78 23 42 48 48 77 16z m189 -250 c6 -35 12 -67 12 -71 1 -5
-24 -8 -54 -8 -60 0 -63 3 -79 76 -6 28 -4 31 41 51 26 11 52 20 58 19 5 -1
15 -31 22 -67z m-864 -1049 c-11 -48 -55 -60 -155 -44 -33 6 -38 10 -38 34 0
15 2 29 4 31 2 2 47 4 100 4 l95 0 -6 -25z"/>
<path d="M1665 2680 c-33 -5 -96 -12 -140 -16 l-80 -7 115 -23 c125 -25 215
-30 225 -13 4 5 1 23 -5 40 -14 32 -15 32 -115 19z"/>
<path d="M2710 2631 c-5 -11 -10 -29 -10 -41 0 -21 -1 -21 -31 4 -29 25 -59
33 -72 20 -10 -11 19 -58 50 -80 47 -35 173 -95 173 -83 0 6 -16 29 -35 52
-26 31 -35 50 -35 78 0 65 -19 89 -40 50z"/>
<path d="M1633 2543 c-18 -7 -16 -64 3 -91 30 -43 63 -17 43 35 -9 25 0 42 24
43 4 0 7 5 7 10 0 10 -55 13 -77 3z"/>
<path d="M1788 2543 c-10 -2 -18 -11 -18 -19 0 -29 29 -84 44 -84 19 0 21 23
5 52 -8 14 -8 23 0 31 23 23 11 31 -31 20z"/>
<path d="M1463 2525 c-8 -22 6 -33 17 -15 13 20 12 30 0 30 -6 0 -13 -7 -17
-15z"/>
<path d="M1445 2468 c-2 -7 -16 -51 -31 -98 -14 -47 -30 -89 -34 -94 -5 -5
-28 3 -54 18 -36 21 -46 24 -46 12 0 -14 86 -66 109 -66 8 0 38 88 77 223 6
19 -14 24 -21 5z"/>
<path d="M2622 2407 c-24 -26 -29 -57 -9 -57 19 0 57 43 57 63 0 24 -23 21
-48 -6z"/>
<path d="M1670 2290 c0 -21 61 -68 120 -92 91 -38 195 -29 227 19 15 23 15 28
2 52 -17 31 -61 38 -236 40 -106 1 -113 0 -113 -19z m122 5 c10 -10 -5 -57
-20 -62 -17 -7 -42 22 -42 49 0 13 8 18 28 18 16 0 31 -2 34 -5z m148 -24 c0
-30 -25 -45 -44 -26 -26 26 -20 45 14 45 23 0 30 -5 30 -19z"/>
<path d="M2502 2289 c2 -6 18 -17 36 -25 27 -11 32 -11 32 1 0 7 -14 18 -31
24 -39 14 -42 14 -37 0z"/>
<path d="M3940 2221 c0 -13 50 -51 66 -51 25 0 15 18 -22 39 -40 24 -44 25
-44 12z"/>
<path d="M1955 2127 c-16 -5 -36 -11 -42 -13 -15 -4 -18 -64 -3 -64 6 0 10 8
10 18 0 13 13 23 40 32 38 12 49 24 33 33 -5 2 -21 -1 -38 -6z"/>
<path d="M1776 2061 c-3 -4 3 -16 14 -26 22 -19 40 -74 40 -117 0 -27 -1 -28
-60 -28 l-59 0 -10 -37 c-21 -78 -40 -182 -43 -233 l-3 -52 105 -34 c58 -19
106 -34 108 -34 1 0 2 25 2 55 l0 54 40 12 c40 12 40 12 40 64 0 51 -1 52 -60
100 -38 31 -60 56 -60 69 0 15 3 17 11 9 13 -13 33 -3 102 50 l38 30 -37 38
c-26 27 -47 39 -66 39 -15 0 -28 4 -28 9 0 28 -61 54 -74 32z"/>
<path d="M2224 1973 c-3 -10 -12 -32 -19 -50 -17 -38 -3 -54 19 -21 21 33 30
75 17 83 -6 3 -14 -2 -17 -12z"/>
<path d="M1183 1902 c-68 -34 -89 -52 -61 -52 18 0 148 62 148 71 0 19 -19 15
-87 -19z"/>
<path d="M828 1648 c12 -12 24 -19 28 -15 10 10 -16 37 -34 37 -13 0 -12 -4 6
-22z"/>
<path d="M670 1611 c-15 -28 -13 -31 18 -25 15 3 70 -1 122 -9 52 -8 97 -13
100 -10 11 10 -26 20 -113 32 -50 6 -93 16 -95 21 -6 16 -21 11 -32 -9z"/>
<path d="M1464 1469 c3 -17 6 -35 6 -40 0 -17 15 -9 25 14 8 17 6 26 -7 40
-26 25 -31 21 -24 -14z"/>
<path d="M941 1377 c-12 -13 -44 -34 -72 -47 -47 -23 -49 -25 -43 -54 3 -17
10 -32 14 -34 4 -1 28 -16 54 -32 46 -30 55 -47 35 -67 -13 -13 -9 -16 61 -38
30 -10 62 -23 70 -30 24 -19 79 -35 85 -24 4 5 -2 12 -12 15 -62 19 -64 22
-58 61 14 82 47 188 71 229 l26 44 -104 0 c-97 0 -106 -2 -127 -23z"/>
<path d="M1399 667 c-31 -18 -62 -37 -70 -43 -23 -18 -269 -103 -342 -119 -74
-15 -96 -25 -54 -25 54 0 57 -12 57 -251 l0 -219 33 0 c19 0 76 -3 128 -6 l94
-6 -31 20 c-42 27 -67 65 -102 153 -17 42 -38 78 -49 84 -18 9 -17 12 17 40
20 16 50 50 66 76 130 203 180 254 245 247 16 -2 24 2 24 12 0 8 13 23 28 33
15 9 25 22 22 27 -8 12 0 15 -66 -23z"/>
<path d="M361 460 c0 -8 -11 -20 -23 -25 -21 -9 -23 -18 -26 -85 -4 -92 2
-116 28 -123 20 -5 20 -10 14 -111 -5 -77 -4 -106 5 -106 7 0 11 34 11 110 l0
110 165 0 c140 0 165 2 165 15 0 11 12 15 45 15 34 0 45 -4 45 -16 0 -8 5 -12
10 -9 6 3 10 49 10 102 0 86 -2 95 -20 100 -11 3 -20 12 -20 20 0 8 -5 11 -10
8 -6 -4 -8 -11 -5 -16 4 -5 -71 -9 -189 -9 -177 0 -195 2 -199 18 -3 12 -5 13
-6 2z m287 -36 c20 -6 22 -12 22 -85 l0 -80 -157 3 -158 3 -3 77 -3 77 68 4
c130 6 208 7 231 1z"/>
<path d="M898 393 c18 -2 45 -2 60 0 15 2 0 4 -33 4 -33 0 -45 -2 -27 -4z"/>
<path d="M875 350 c3 -5 28 -10 56 -10 27 0 49 5 49 10 0 6 -25 10 -56 10 -34
0 -53 -4 -49 -10z"/>
<path d="M875 310 c-4 -6 15 -10 49 -10 31 0 56 5 56 10 0 6 -22 10 -49 10
-28 0 -53 -4 -56 -10z"/>
<path d="M2830 271 c0 -29 14 -41 51 -41 25 0 34 22 19 49 -7 14 -21 21 -40
21 -26 0 -30 -4 -30 -29z"/>
<path d="M752 120 c-3 -75 0 -110 7 -110 7 0 11 37 11 110 0 61 -3 110 -7 110
-5 0 -10 -50 -11 -110z"/>
<path d="M2937 223 c-17 -16 -6 -54 18 -65 27 -12 55 2 55 28 0 29 -54 57 -73
37z"/>
</g>
</svg>
