<?xml version="1.0" standalone="no"?>
<!DOCTYPE svg PUBLIC "-//W3C//DTD SVG 20010904//EN"
 "http://www.w3.org/TR/2001/REC-SVG-20010904/DTD/svg10.dtd">
<svg version="1.0" xmlns="http://www.w3.org/2000/svg"
 width="1280.000000pt" height="313.000000pt" viewBox="0 0 1280.000000 313.000000"
 preserveAspectRatio="xMidYMid meet">

<g transform="translate(0.000000,313.000000) scale(0.100000,-0.100000)"
fill="#000000" stroke="none">
<path d="M10170 2284 c-158 -41 -310 -160 -380 -297 -33 -63 -37 -67 -63 -61
-48 10 -179 7 -242 -6 -91 -19 -211 -80 -280 -144 l-60 -55 858 -1 858 0 24
25 c31 30 31 54 2 142 -50 153 -153 276 -289 342 -46 22 -110 48 -143 56 -74
19 -212 18 -285 -1z"/>
<path d="M11855 2230 c-49 -23 -67 -37 -89 -71 -14 -23 -26 -27 -75 -31 -40
-3 -68 -11 -92 -29 l-34 -24 269 -3 c148 -1 270 -1 272 1 9 9 -20 80 -43 108
-31 37 -95 69 -138 69 -16 0 -48 -9 -70 -20z"/>
<path d="M4105 2176 c-27 -13 -16 -14 130 -15 185 0 195 16 14 24 -86 4 -121
2 -144 -9z"/>
<path d="M2020 2068 c-19 -5 -52 -23 -72 -39 l-38 -30 -59 16 c-32 8 -76 15
-98 15 -58 0 -148 -26 -195 -57 l-43 -28 359 -3 c198 -1 361 0 364 2 2 3 -6
21 -18 41 -42 69 -127 104 -200 83z"/>
<path d="M545 1480 c-124 -15 -340 -93 -340 -122 0 -11 116 -13 628 -13 410 0
628 3 629 10 3 21 -123 77 -204 91 -80 14 -195 8 -273 -14 -21 -6 -43 -3 -80
11 -58 22 -202 48 -260 46 -22 -1 -67 -5 -100 -9z"/>
<path d="M3785 1315 c-140 -36 -307 -147 -459 -307 -253 -264 -241 -254 -328
-296 -46 -22 -107 -45 -136 -51 -81 -17 -207 -13 -297 9 -137 33 -289 45 -420
31 -200 -20 -488 -106 -512 -152 -10 -18 -13 -20 -13 -7 0 16 -5 15 -55 -7
-91 -40 -252 -133 -395 -228 -131 -87 -395 -281 -406 -298 -3 -5 1211 -9 2758
-9 l2763 1 -163 159 c-354 346 -579 494 -726 476 -77 -9 -153 -52 -229 -129
-37 -38 -70 -68 -71 -66 -2 2 -36 42 -76 89 -104 123 -346 376 -436 456 -72
65 -77 67 -90 49 -15 -21 -14 -23 -18 34 -2 35 -249 189 -374 232 -77 28 -235
34 -317 14z m928 -890 c4 -8 2 -17 -3 -20 -6 -4 -10 3 -10 14 0 25 6 27 13 6z"/>
<path d="M10860 1162 c0 -29 -27 -82 -41 -82 -6 0 1 -14 15 -31 15 -18 26 -44
27 -62 1 -30 2 -30 15 13 8 25 22 51 31 57 15 12 15 14 -1 32 -10 11 -24 37
-32 58 -10 28 -13 32 -14 15z"/>
<path d="M8159 709 c-361 -28 -760 -200 -1444 -623 l-140 -86 547 0 547 0 15
28 c23 43 76 92 100 91 20 -2 20 -2 -1 -6 -20 -4 -74 -60 -97 -100 -6 -10 87
-13 448 -13 l456 0 -1 58 c0 70 -25 138 -60 164 -14 11 -47 26 -75 33 -45 14
-46 14 -9 9 101 -14 145 -69 153 -191 l5 -73 1243 0 1244 0 -11 26 c-5 15 -8
29 -5 31 2 2 8 -10 14 -26 l11 -31 350 0 350 0 20 29 c12 16 24 43 27 59 6 27
2 32 -41 57 -47 28 -78 30 -159 9 -21 -5 -24 -1 -30 37 -8 53 -58 102 -124
124 -26 8 -35 14 -19 12 15 -3 27 -2 27 0 0 17 -373 168 -389 158 -5 -2 -24 4
-44 14 -49 25 -158 45 -201 37 -19 -4 -46 -16 -61 -28 -30 -24 -64 -89 -66
-128 -1 -17 -3 -20 -6 -7 -12 44 33 121 91 158 l29 18 -37 6 c-72 14 -356 -1
-451 -23 -224 -52 -394 -120 -617 -243 l-138 -77 -158 95 c-308 185 -620 321
-854 372 -79 17 -308 45 -328 40 -3 -1 -53 -5 -111 -10z m3016 -280 c28 -30
26 -29 -17 6 -27 22 -48 41 -48 42 0 10 39 -19 65 -48z m55 -83 c0 -12 -5 -7
-19 24 -11 24 -11 24 3 6 9 -11 16 -24 16 -30z m-2990 -25 c14 -10 31 -30 38
-45 13 -26 16 -27 70 -22 l57 5 -60 -12 -60 -12 -12 28 c-18 41 -39 58 -91 73
-46 14 -46 14 -7 8 22 -3 51 -13 65 -23z m2539 -69 c44 -86 147 -162 245 -182
30 -6 34 -8 14 -9 -48 -2 -132 37 -189 88 -58 51 -110 139 -108 181 1 23 2 22
8 -5 4 -16 18 -49 30 -73z m-2659 81 c-80 -29 -148 -108 -169 -199 -7 -31 -9
-34 -10 -12 -1 14 14 55 32 90 24 47 45 71 81 96 26 17 56 32 65 31 13 0 13
-1 1 -6z m3313 0 c-7 -2 -19 -2 -25 0 -7 3 -2 5 12 5 14 0 19 -2 13 -5z m-183
-38 c0 -5 -5 -3 -10 5 -5 8 -10 20 -10 25 0 6 5 3 10 -5 5 -8 10 -19 10 -25z
m103 28 c-7 -2 -19 -2 -25 0 -7 3 -2 5 12 5 14 0 19 -2 13 -5z m-58 -13 c-27
-12 -43 -12 -25 0 8 5 22 9 30 9 10 0 8 -3 -5 -9z m-3393 -231 c25 -18 27 -18
31 -2 3 12 5 8 6 -9 l1 -27 -51 35 c-28 19 -57 34 -65 34 -8 0 -14 5 -14 10 0
11 48 -10 92 -41z"/>
<path d="M11599 254 c11 -14 23 -41 27 -60 6 -31 8 -33 38 -27 86 17 86 15 3
66 -43 26 -80 47 -83 47 -3 0 4 -12 15 -26z"/>
<path d="M11844 54 l-21 -54 100 0 c55 0 98 2 96 3 -7 6 -134 93 -144 99 -5 3
-20 -18 -31 -48z"/>
</g>
</svg>
